 <svg xmlns="http://www.w3.org/2000/svg" width="40" height="41" viewBox="0 0 40 41" fill="none">
              <path d="M2.00182 23.3962C0.823125 21.7043 0.823125 19.4572 2.00182 17.7652L3.83538 15.1333C4.24197 14.5496 4.51732 13.8849 4.64251 13.1847L5.20707 10.0271C5.56999 7.99723 7.15893 6.40829 9.18879 6.04537L12.3464 5.48081C13.0466 5.35562 13.7113 5.08027 14.295 4.67368L16.9269 2.84012C18.6189 1.66142 20.866 1.66142 22.5579 2.84012L25.1899 4.67368C25.7735 5.08027 26.4383 5.35562 27.1385 5.48081L30.2961 6.04537C32.3259 6.40829 33.9149 7.99723 34.2778 10.0271L34.8423 13.1847C34.9675 13.8849 35.2429 14.5496 35.6495 15.1333L37.483 17.7652C38.6617 19.4572 38.6617 21.7043 37.483 23.3962L35.6495 26.0282C35.2429 26.6118 34.9675 27.2766 34.8423 27.9768L34.2778 31.1344C33.9149 33.1642 32.3259 34.7532 30.2961 35.1161L27.1385 35.6806C26.4383 35.8058 25.7735 36.0812 25.1899 36.4878L22.5579 38.3213C20.866 39.5 18.6189 39.5 16.9269 38.3213L14.295 36.4878C13.7113 36.0812 13.0466 35.8058 12.3464 35.6806L9.18879 35.1161C7.15893 34.7532 5.56999 33.1642 5.20707 31.1344L4.64251 27.9768C4.51732 27.2766 4.24197 26.6118 3.83538 26.0282L2.00182 23.3962Z" fill="#8CD373" />
              <path d="M16.0326 26.7473L11.1131 21.8278C10.8565 21.5717 10.7123 21.2241 10.7123 20.8617C10.7123 20.4992 10.8565 20.1516 11.1131 19.8956C11.6475 19.3611 12.5108 19.3611 13.0453 19.8956L17.0055 23.8421L26.4334 14.4142C26.9679 13.8798 27.8312 13.8798 28.3656 14.4142C28.9001 14.9487 28.9001 15.812 28.3656 16.3464L17.9648 26.7473C17.444 27.2817 16.567 27.2817 16.0326 26.7473Z" fill="white" />
            </svg>