<svg xmlns="http://www.w3.org/2000/svg" width="19.02" height="33.183" viewBox="0 0 19.02 33.183"><defs><style>.a{fill:#4d4d4d;stroke:#4d4d4d;stroke-width:0.5px;}</style></defs><g transform="translate(0.25 0.25)"><g transform="translate(7.081 27.781)"><g transform="translate(0)"><path class="a" d="M224.722,435.2H223.37a1.5,1.5,0,0,0-1.5,1.5v.263a1.5,1.5,0,0,0,1.5,1.5h1.353a1.5,1.5,0,0,0,1.5-1.5V436.7A1.5,1.5,0,0,0,224.722,435.2Zm.413,1.766a.413.413,0,0,1-.413.413H223.37a.413.413,0,0,1-.413-.413V436.7a.414.414,0,0,1,.413-.413h1.352a.414.414,0,0,1,.413.413Z" transform="translate(-221.867 -435.2)"/></g></g><g transform="translate(0)"><path class="a" d="M127.485,0H112.9a1.972,1.972,0,0,0-1.969,1.969V30.714a1.972,1.972,0,0,0,1.969,1.969h14.582a1.971,1.971,0,0,0,1.969-1.969V1.969A1.971,1.971,0,0,0,127.485,0Zm.879,30.714a.881.881,0,0,1-.879.88H112.9a.881.881,0,0,1-.88-.879V1.969a.881.881,0,0,1,.88-.88h14.582a.881.881,0,0,1,.88.88V30.714Z" transform="translate(-110.933)"/></g><g transform="translate(0 3.268)"><path class="a" d="M128.91,51.2H111.479a.545.545,0,0,0-.545.545V74.623a.545.545,0,0,0,.545.545H128.91a.545.545,0,0,0,.545-.545V51.745A.545.545,0,0,0,128.91,51.2Zm-.545,22.878H112.023V52.289h16.341Z" transform="translate(-110.934 -51.2)"/></g></g></svg>