<svg width="14" height="12" viewBox="0 0 14 12" fill="none" xmlns="http://www.w3.org/2000/svg">
<path d="M5.6805 11.2591C5.61283 11.1931 5.3235 10.9437 5.0855 10.7113C3.58867 9.34921 1.13867 5.79585 0.390833 3.93603C0.270667 3.65358 0.0163333 2.93949 0 2.55796C0 2.19238 0.084 1.84387 0.254333 1.51132C0.492333 1.09676 0.866833 0.7642 1.309 0.581977C1.61583 0.46467 2.534 0.282447 2.55033 0.282447C3.55483 0.100223 5.187 0 6.99067 0C8.70917 0 10.2748 0.100223 11.2945 0.249419C11.3108 0.266502 12.4518 0.448726 12.8427 0.648033C13.5567 1.01362 14 1.72771 14 2.49191V2.55796C13.9825 3.05566 13.5392 4.10231 13.5228 4.10231C12.7738 5.8619 10.444 9.33326 8.89583 10.7284C8.89583 10.7284 8.498 11.1213 8.2495 11.2922C7.8925 11.5587 7.45033 11.6908 7.00817 11.6908C6.51467 11.6908 6.055 11.5416 5.6805 11.2591Z" fill="#6A7085"/>
</svg>
